<?xml version="1.0" encoding="UTF-8" standalone="no"?>
<!DOCTYPE svg PUBLIC "-//W3C//DTD SVG 1.1//EN"
 "http://www.w3.org/Graphics/SVG/1.1/DTD/svg11.dtd">
<!-- Generated by graphviz version 2.42.3 (20191010.1750)
 -->
<!-- Title: snakemake_dag Pages: 1 -->
<svg width="758pt" height="497pt"
 viewBox="0.00 0.00 757.88 497.00" xmlns="http://www.w3.org/2000/svg" xmlns:xlink="http://www.w3.org/1999/xlink">
<g id="graph0" class="graph" transform="scale(1 1) rotate(0) translate(4 493)">
<title>snakemake_dag</title>
<polygon fill="white" stroke="transparent" points="-4,4 -4,-493 753.88,-493 753.88,4 -4,4"/>
<!-- 0 -->
<g id="node1" class="node">
<title>0</title>
<path fill="none" stroke="#5682d8" stroke-width="2" d="M277.88,-36C277.88,-36 247.88,-36 247.88,-36 241.88,-36 235.88,-30 235.88,-24 235.88,-24 235.88,-12 235.88,-12 235.88,-6 241.88,0 247.88,0 247.88,0 277.88,0 277.88,0 283.88,0 289.88,-6 289.88,-12 289.88,-12 289.88,-24 289.88,-24 289.88,-30 283.88,-36 277.88,-36"/>
<text text-anchor="middle" x="262.88" y="-15.5" font-family="sans" font-size="10.00">all</text>
</g>
<!-- 1 -->
<g id="node2" class="node">
<title>1</title>
<path fill="none" stroke="#70d856" stroke-width="2" stroke-dasharray="5,2" d="M83.88,-108C83.88,-108 13.88,-108 13.88,-108 7.88,-108 1.88,-102 1.88,-96 1.88,-96 1.88,-84 1.88,-84 1.88,-78 7.88,-72 13.88,-72 13.88,-72 83.88,-72 83.88,-72 89.88,-72 95.88,-78 95.88,-84 95.88,-84 95.88,-96 95.88,-96 95.88,-102 89.88,-108 83.88,-108"/>
<text text-anchor="middle" x="48.88" y="-87.5" font-family="sans" font-size="10.00">samtools_index</text>
</g>
<!-- 1&#45;&gt;0 -->
<g id="edge1" class="edge">
<title>1&#45;&gt;0</title>
<path fill="none" stroke="grey" stroke-width="2" d="M96.1,-73.55C135.26,-60.74 190.13,-42.79 226.08,-31.04"/>
<polygon fill="grey" stroke="grey" stroke-width="2" points="227.27,-34.33 235.69,-27.89 225.1,-27.68 227.27,-34.33"/>
</g>
<!-- 2 -->
<g id="node3" class="node">
<title>2</title>
<path fill="none" stroke="#70d856" stroke-width="2" d="M413.88,-108C413.88,-108 343.88,-108 343.88,-108 337.88,-108 331.88,-102 331.88,-96 331.88,-96 331.88,-84 331.88,-84 331.88,-78 337.88,-72 343.88,-72 343.88,-72 413.88,-72 413.88,-72 419.88,-72 425.88,-78 425.88,-84 425.88,-84 425.88,-96 425.88,-96 425.88,-102 419.88,-108 413.88,-108"/>
<text text-anchor="middle" x="378.88" y="-87.5" font-family="sans" font-size="10.00">samtools_index</text>
</g>
<!-- 2&#45;&gt;0 -->
<g id="edge2" class="edge">
<title>2&#45;&gt;0</title>
<path fill="none" stroke="grey" stroke-width="2" d="M350.5,-71.88C334.99,-62.52 315.62,-50.83 299.04,-40.83"/>
<polygon fill="grey" stroke="grey" stroke-width="2" points="300.53,-37.64 290.16,-35.47 296.91,-43.63 300.53,-37.64"/>
</g>
<!-- 3 -->
<g id="node4" class="node">
<title>3</title>
<path fill="none" stroke="#ced856" stroke-width="2" d="M569.38,-108C569.38,-108 498.38,-108 498.38,-108 492.38,-108 486.38,-102 486.38,-96 486.38,-96 486.38,-84 486.38,-84 486.38,-78 492.38,-72 498.38,-72 498.38,-72 569.38,-72 569.38,-72 575.38,-72 581.38,-78 581.38,-84 581.38,-84 581.38,-96 581.38,-96 581.38,-102 575.38,-108 569.38,-108"/>
<text text-anchor="middle" x="533.88" y="-87.5" font-family="sans" font-size="10.00">multiQC_fastQC</text>
</g>
<!-- 3&#45;&gt;0 -->
<g id="edge3" class="edge">
<title>3&#45;&gt;0</title>
<path fill="none" stroke="grey" stroke-width="2" d="M486.36,-76.73C433.22,-63 348.26,-41.05 299.84,-28.55"/>
<polygon fill="grey" stroke="grey" stroke-width="2" points="300.65,-25.14 290.09,-26.03 298.9,-31.92 300.65,-25.14"/>
</g>
<!-- 4 -->
<g id="node5" class="node">
<title>4</title>
<path fill="none" stroke="#d85656" stroke-width="2" d="M217.88,-188C217.88,-188 149.88,-188 149.88,-188 143.88,-188 137.88,-182 137.88,-176 137.88,-176 137.88,-164 137.88,-164 137.88,-158 143.88,-152 149.88,-152 149.88,-152 217.88,-152 217.88,-152 223.88,-152 229.88,-158 229.88,-164 229.88,-164 229.88,-176 229.88,-176 229.88,-182 223.88,-188 217.88,-188"/>
<text text-anchor="middle" x="183.88" y="-167.5" font-family="sans" font-size="10.00">multiQC_picard</text>
</g>
<!-- 4&#45;&gt;0 -->
<g id="edge4" class="edge">
<title>4&#45;&gt;0</title>
<path fill="none" stroke="grey" stroke-width="2" d="M184.22,-151.74C185.33,-131.4 189.41,-97.2 203.88,-72 210.25,-60.9 219.77,-50.87 229.32,-42.6"/>
<polygon fill="grey" stroke="grey" stroke-width="2" points="231.76,-45.13 237.28,-36.08 227.33,-39.71 231.76,-45.13"/>
</g>
<!-- 5 -->
<g id="node6" class="node">
<title>5</title>
<path fill="none" stroke="#9fd856" stroke-width="2" d="M300.38,-108C300.38,-108 225.38,-108 225.38,-108 219.38,-108 213.38,-102 213.38,-96 213.38,-96 213.38,-84 213.38,-84 213.38,-78 219.38,-72 225.38,-72 225.38,-72 300.38,-72 300.38,-72 306.38,-72 312.38,-78 312.38,-84 312.38,-84 312.38,-96 312.38,-96 312.38,-102 306.38,-108 300.38,-108"/>
<text text-anchor="middle" x="262.88" y="-87.5" font-family="sans" font-size="10.00">multiQC_flagstat</text>
</g>
<!-- 5&#45;&gt;0 -->
<g id="edge5" class="edge">
<title>5&#45;&gt;0</title>
<path fill="none" stroke="grey" stroke-width="2" d="M262.88,-71.7C262.88,-63.98 262.88,-54.71 262.88,-46.11"/>
<polygon fill="grey" stroke="grey" stroke-width="2" points="266.38,-46.1 262.88,-36.1 259.38,-46.1 266.38,-46.1"/>
</g>
<!-- 6 -->
<g id="node7" class="node">
<title>6</title>
<path fill="none" stroke="#56d8c9" stroke-width="2" stroke-dasharray="5,2" d="M119.88,-268C119.88,-268 33.88,-268 33.88,-268 27.88,-268 21.88,-262 21.88,-256 21.88,-256 21.88,-244 21.88,-244 21.88,-238 27.88,-232 33.88,-232 33.88,-232 119.88,-232 119.88,-232 125.88,-232 131.88,-238 131.88,-244 131.88,-244 131.88,-256 131.88,-256 131.88,-262 125.88,-268 119.88,-268"/>
<text text-anchor="middle" x="76.88" y="-247.5" font-family="sans" font-size="10.00">remove_duplicates</text>
</g>
<!-- 6&#45;&gt;1 -->
<g id="edge6" class="edge">
<title>6&#45;&gt;1</title>
<path fill="none" stroke="grey" stroke-width="2" d="M42.19,-231.83C28.57,-223.13 14.41,-211.15 6.88,-196 -3.41,-175.31 -0.72,-165.83 6.88,-144 10.41,-133.86 16.78,-124.19 23.51,-115.96"/>
<polygon fill="grey" stroke="grey" stroke-width="2" points="26.32,-118.07 30.27,-108.24 21.05,-113.46 26.32,-118.07"/>
</g>
<!-- 6&#45;&gt;4 -->
<g id="edge12" class="edge">
<title>6&#45;&gt;4</title>
<path fill="none" stroke="grey" stroke-width="2" d="M100.36,-231.88C115.55,-220.81 135.52,-206.25 152.12,-194.15"/>
<polygon fill="grey" stroke="grey" stroke-width="2" points="154.43,-196.8 160.45,-188.08 150.31,-191.14 154.43,-196.8"/>
</g>
<!-- 12 -->
<g id="node13" class="node">
<title>12</title>
<path fill="none" stroke="#56d86b" stroke-width="2" stroke-dasharray="5,2" d="M107.88,-188C107.88,-188 27.88,-188 27.88,-188 21.88,-188 15.88,-182 15.88,-176 15.88,-176 15.88,-164 15.88,-164 15.88,-158 21.88,-152 27.88,-152 27.88,-152 107.88,-152 107.88,-152 113.88,-152 119.88,-158 119.88,-164 119.88,-164 119.88,-176 119.88,-176 119.88,-182 113.88,-188 107.88,-188"/>
<text text-anchor="middle" x="67.88" y="-167.5" font-family="sans" font-size="10.00">samtools_flagstat</text>
</g>
<!-- 6&#45;&gt;12 -->
<g id="edge20" class="edge">
<title>6&#45;&gt;12</title>
<path fill="none" stroke="grey" stroke-width="2" d="M74.88,-231.69C73.75,-221.89 72.31,-209.42 71.03,-198.33"/>
<polygon fill="grey" stroke="grey" stroke-width="2" points="74.49,-197.8 69.87,-188.26 67.54,-198.6 74.49,-197.8"/>
</g>
<!-- 7 -->
<g id="node8" class="node">
<title>7</title>
<path fill="none" stroke="#56d8c9" stroke-width="2" d="M332.88,-268C332.88,-268 246.88,-268 246.88,-268 240.88,-268 234.88,-262 234.88,-256 234.88,-256 234.88,-244 234.88,-244 234.88,-238 240.88,-232 246.88,-232 246.88,-232 332.88,-232 332.88,-232 338.88,-232 344.88,-238 344.88,-244 344.88,-244 344.88,-256 344.88,-256 344.88,-262 338.88,-268 332.88,-268"/>
<text text-anchor="middle" x="289.88" y="-247.5" font-family="sans" font-size="10.00">remove_duplicates</text>
</g>
<!-- 7&#45;&gt;2 -->
<g id="edge7" class="edge">
<title>7&#45;&gt;2</title>
<path fill="none" stroke="grey" stroke-width="2" d="M322.72,-231.97C336.63,-223.1 351.72,-210.95 360.88,-196 375.24,-172.55 378.99,-140.93 379.61,-118.53"/>
<polygon fill="grey" stroke="grey" stroke-width="2" points="383.11,-118.38 379.7,-108.35 376.11,-118.32 383.11,-118.38"/>
</g>
<!-- 7&#45;&gt;4 -->
<g id="edge13" class="edge">
<title>7&#45;&gt;4</title>
<path fill="none" stroke="grey" stroke-width="2" d="M266.61,-231.88C251.56,-220.81 231.78,-206.25 215.34,-194.15"/>
<polygon fill="grey" stroke="grey" stroke-width="2" points="217.21,-191.19 207.08,-188.08 213.06,-196.82 217.21,-191.19"/>
</g>
<!-- 13 -->
<g id="node14" class="node">
<title>13</title>
<path fill="none" stroke="#56d86b" stroke-width="2" d="M339.88,-188C339.88,-188 259.88,-188 259.88,-188 253.88,-188 247.88,-182 247.88,-176 247.88,-176 247.88,-164 247.88,-164 247.88,-158 253.88,-152 259.88,-152 259.88,-152 339.88,-152 339.88,-152 345.88,-152 351.88,-158 351.88,-164 351.88,-164 351.88,-176 351.88,-176 351.88,-182 345.88,-188 339.88,-188"/>
<text text-anchor="middle" x="299.88" y="-167.5" font-family="sans" font-size="10.00">samtools_flagstat</text>
</g>
<!-- 7&#45;&gt;13 -->
<g id="edge21" class="edge">
<title>7&#45;&gt;13</title>
<path fill="none" stroke="grey" stroke-width="2" d="M292.1,-231.69C293.35,-221.89 294.95,-209.42 296.37,-198.33"/>
<polygon fill="grey" stroke="grey" stroke-width="2" points="299.86,-198.63 297.66,-188.26 292.92,-197.74 299.86,-198.63"/>
</g>
<!-- 8 -->
<g id="node9" class="node">
<title>8</title>
<path fill="none" stroke="#d88556" stroke-width="2" stroke-dasharray="5,2" d="M557.88,-196C557.88,-196 509.88,-196 509.88,-196 503.88,-196 497.88,-190 497.88,-184 497.88,-184 497.88,-156 497.88,-156 497.88,-150 503.88,-144 509.88,-144 509.88,-144 557.88,-144 557.88,-144 563.88,-144 569.88,-150 569.88,-156 569.88,-156 569.88,-184 569.88,-184 569.88,-190 563.88,-196 557.88,-196"/>
<text text-anchor="middle" x="533.88" y="-184" font-family="sans" font-size="10.00">fastQC</text>
<text text-anchor="middle" x="533.88" y="-173" font-family="sans" font-size="10.00">ID: a</text>
<text text-anchor="middle" x="533.88" y="-162" font-family="sans" font-size="10.00">LANE: TEST</text>
<text text-anchor="middle" x="533.88" y="-151" font-family="sans" font-size="10.00">READ: 1</text>
</g>
<!-- 8&#45;&gt;3 -->
<g id="edge8" class="edge">
<title>8&#45;&gt;3</title>
<path fill="none" stroke="grey" stroke-width="2" d="M533.88,-143.89C533.88,-135.84 533.88,-126.88 533.88,-118.66"/>
<polygon fill="grey" stroke="grey" stroke-width="2" points="537.38,-118.41 533.88,-108.41 530.38,-118.41 537.38,-118.41"/>
</g>
<!-- 9 -->
<g id="node10" class="node">
<title>9</title>
<path fill="none" stroke="#d88556" stroke-width="2" stroke-dasharray="5,2" d="M647.88,-196C647.88,-196 599.88,-196 599.88,-196 593.88,-196 587.88,-190 587.88,-184 587.88,-184 587.88,-156 587.88,-156 587.88,-150 593.88,-144 599.88,-144 599.88,-144 647.88,-144 647.88,-144 653.88,-144 659.88,-150 659.88,-156 659.88,-156 659.88,-184 659.88,-184 659.88,-190 653.88,-196 647.88,-196"/>
<text text-anchor="middle" x="623.88" y="-184" font-family="sans" font-size="10.00">fastQC</text>
<text text-anchor="middle" x="623.88" y="-173" font-family="sans" font-size="10.00">ID: b</text>
<text text-anchor="middle" x="623.88" y="-162" font-family="sans" font-size="10.00">LANE: TEST</text>
<text text-anchor="middle" x="623.88" y="-151" font-family="sans" font-size="10.00">READ: 1</text>
</g>
<!-- 9&#45;&gt;3 -->
<g id="edge9" class="edge">
<title>9&#45;&gt;3</title>
<path fill="none" stroke="grey" stroke-width="2" d="M594.9,-143.89C584.18,-134.59 572.05,-124.08 561.45,-114.9"/>
<polygon fill="grey" stroke="grey" stroke-width="2" points="563.54,-112.07 553.69,-108.17 558.95,-117.36 563.54,-112.07"/>
</g>
<!-- 10 -->
<g id="node11" class="node">
<title>10</title>
<path fill="none" stroke="#d88556" stroke-width="2" stroke-dasharray="5,2" d="M737.88,-196C737.88,-196 689.88,-196 689.88,-196 683.88,-196 677.88,-190 677.88,-184 677.88,-184 677.88,-156 677.88,-156 677.88,-150 683.88,-144 689.88,-144 689.88,-144 737.88,-144 737.88,-144 743.88,-144 749.88,-150 749.88,-156 749.88,-156 749.88,-184 749.88,-184 749.88,-190 743.88,-196 737.88,-196"/>
<text text-anchor="middle" x="713.88" y="-184" font-family="sans" font-size="10.00">fastQC</text>
<text text-anchor="middle" x="713.88" y="-173" font-family="sans" font-size="10.00">ID: a</text>
<text text-anchor="middle" x="713.88" y="-162" font-family="sans" font-size="10.00">LANE: TEST</text>
<text text-anchor="middle" x="713.88" y="-151" font-family="sans" font-size="10.00">READ: 2</text>
</g>
<!-- 10&#45;&gt;3 -->
<g id="edge10" class="edge">
<title>10&#45;&gt;3</title>
<path fill="none" stroke="grey" stroke-width="2" d="M677.74,-148.38C674.77,-146.85 671.79,-145.37 668.88,-144 643.74,-132.15 615.19,-120.67 590.84,-111.44"/>
<polygon fill="grey" stroke="grey" stroke-width="2" points="591.98,-108.13 581.39,-107.89 589.52,-114.68 591.98,-108.13"/>
</g>
<!-- 11 -->
<g id="node12" class="node">
<title>11</title>
<path fill="none" stroke="#d88556" stroke-width="2" stroke-dasharray="5,2" d="M467.88,-196C467.88,-196 419.88,-196 419.88,-196 413.88,-196 407.88,-190 407.88,-184 407.88,-184 407.88,-156 407.88,-156 407.88,-150 413.88,-144 419.88,-144 419.88,-144 467.88,-144 467.88,-144 473.88,-144 479.88,-150 479.88,-156 479.88,-156 479.88,-184 479.88,-184 479.88,-190 473.88,-196 467.88,-196"/>
<text text-anchor="middle" x="443.88" y="-184" font-family="sans" font-size="10.00">fastQC</text>
<text text-anchor="middle" x="443.88" y="-173" font-family="sans" font-size="10.00">ID: b</text>
<text text-anchor="middle" x="443.88" y="-162" font-family="sans" font-size="10.00">LANE: TEST</text>
<text text-anchor="middle" x="443.88" y="-151" font-family="sans" font-size="10.00">READ: 2</text>
</g>
<!-- 11&#45;&gt;3 -->
<g id="edge11" class="edge">
<title>11&#45;&gt;3</title>
<path fill="none" stroke="grey" stroke-width="2" d="M472.85,-143.89C483.58,-134.59 495.7,-124.08 506.3,-114.9"/>
<polygon fill="grey" stroke="grey" stroke-width="2" points="508.8,-117.36 514.06,-108.17 504.22,-112.07 508.8,-117.36"/>
</g>
<!-- 12&#45;&gt;5 -->
<g id="edge14" class="edge">
<title>12&#45;&gt;5</title>
<path fill="none" stroke="grey" stroke-width="2" d="M109.19,-151.99C115.77,-149.3 122.51,-146.56 128.88,-144 155.51,-133.28 185.19,-121.52 209.84,-111.8"/>
<polygon fill="grey" stroke="grey" stroke-width="2" points="211.35,-114.97 219.37,-108.05 208.78,-108.46 211.35,-114.97"/>
</g>
<!-- 13&#45;&gt;5 -->
<g id="edge15" class="edge">
<title>13&#45;&gt;5</title>
<path fill="none" stroke="grey" stroke-width="2" d="M291.66,-151.69C286.87,-141.59 280.73,-128.65 275.36,-117.31"/>
<polygon fill="grey" stroke="grey" stroke-width="2" points="278.51,-115.8 271.06,-108.26 272.19,-118.8 278.51,-115.8"/>
</g>
<!-- 14 -->
<g id="node15" class="node">
<title>14</title>
<path fill="none" stroke="#d8b456" stroke-width="2" stroke-dasharray="5,2" d="M204.88,-489C204.88,-489 166.88,-489 166.88,-489 160.88,-489 154.88,-483 154.88,-477 154.88,-477 154.88,-465 154.88,-465 154.88,-459 160.88,-453 166.88,-453 166.88,-453 204.88,-453 204.88,-453 210.88,-453 216.88,-459 216.88,-465 216.88,-465 216.88,-477 216.88,-477 216.88,-483 210.88,-489 204.88,-489"/>
<text text-anchor="middle" x="185.88" y="-468.5" font-family="sans" font-size="10.00">index_ref</text>
</g>
<!-- 14&#45;&gt;6 -->
<g id="edge16" class="edge">
<title>14&#45;&gt;6</title>
<path fill="none" stroke="grey" stroke-width="2" d="M154.63,-456.88C137.55,-448.1 117.55,-434.85 105.88,-417 78.13,-374.58 74.66,-313.55 75.31,-278.53"/>
<polygon fill="grey" stroke="grey" stroke-width="2" points="78.82,-278.23 75.64,-268.12 71.82,-278.01 78.82,-278.23"/>
</g>
<!-- 14&#45;&gt;7 -->
<g id="edge18" class="edge">
<title>14&#45;&gt;7</title>
<path fill="none" stroke="grey" stroke-width="2" d="M190.17,-452.81C199.58,-415.79 222.43,-329.78 237.88,-304 244.18,-293.48 252.98,-283.46 261.55,-275.02"/>
<polygon fill="grey" stroke="grey" stroke-width="2" points="264.08,-277.45 268.95,-268.04 259.27,-272.35 264.08,-277.45"/>
</g>
<!-- 17 -->
<g id="node18" class="node">
<title>17</title>
<path fill="none" stroke="#56d89a" stroke-width="2" stroke-dasharray="5,2" d="M174.88,-417C174.88,-417 126.88,-417 126.88,-417 120.88,-417 114.88,-411 114.88,-405 114.88,-405 114.88,-388 114.88,-388 114.88,-382 120.88,-376 126.88,-376 126.88,-376 174.88,-376 174.88,-376 180.88,-376 186.88,-382 186.88,-388 186.88,-388 186.88,-405 186.88,-405 186.88,-411 180.88,-417 174.88,-417"/>
<text text-anchor="middle" x="150.88" y="-405" font-family="sans" font-size="10.00">bwa_map</text>
<text text-anchor="middle" x="150.88" y="-394" font-family="sans" font-size="10.00">ID: a</text>
<text text-anchor="middle" x="150.88" y="-383" font-family="sans" font-size="10.00">LANE: TEST</text>
</g>
<!-- 14&#45;&gt;17 -->
<g id="edge24" class="edge">
<title>14&#45;&gt;17</title>
<path fill="none" stroke="grey" stroke-width="2" d="M177.58,-452.82C173.74,-444.86 169.07,-435.19 164.72,-426.18"/>
<polygon fill="grey" stroke="grey" stroke-width="2" points="167.85,-424.6 160.35,-417.12 161.54,-427.65 167.85,-424.6"/>
</g>
<!-- 18 -->
<g id="node19" class="node">
<title>18</title>
<path fill="none" stroke="#56d89a" stroke-width="2" d="M309.88,-417C309.88,-417 261.88,-417 261.88,-417 255.88,-417 249.88,-411 249.88,-405 249.88,-405 249.88,-388 249.88,-388 249.88,-382 255.88,-376 261.88,-376 261.88,-376 309.88,-376 309.88,-376 315.88,-376 321.88,-382 321.88,-388 321.88,-388 321.88,-405 321.88,-405 321.88,-411 315.88,-417 309.88,-417"/>
<text text-anchor="middle" x="285.88" y="-405" font-family="sans" font-size="10.00">bwa_map</text>
<text text-anchor="middle" x="285.88" y="-394" font-family="sans" font-size="10.00">ID: b</text>
<text text-anchor="middle" x="285.88" y="-383" font-family="sans" font-size="10.00">LANE: TEST</text>
</g>
<!-- 14&#45;&gt;18 -->
<g id="edge25" class="edge">
<title>14&#45;&gt;18</title>
<path fill="none" stroke="grey" stroke-width="2" d="M209.57,-452.82C221.82,-443.94 237.01,-432.93 250.6,-423.08"/>
<polygon fill="grey" stroke="grey" stroke-width="2" points="252.77,-425.82 258.81,-417.12 248.66,-420.16 252.77,-425.82"/>
</g>
<!-- 15 -->
<g id="node16" class="node">
<title>15</title>
<path fill="none" stroke="#56b1d8" stroke-width="2" stroke-dasharray="5,2" d="M178.88,-340C178.88,-340 116.88,-340 116.88,-340 110.88,-340 104.88,-334 104.88,-328 104.88,-328 104.88,-316 104.88,-316 104.88,-310 110.88,-304 116.88,-304 116.88,-304 178.88,-304 178.88,-304 184.88,-304 190.88,-310 190.88,-316 190.88,-316 190.88,-328 190.88,-328 190.88,-334 184.88,-340 178.88,-340"/>
<text text-anchor="middle" x="147.88" y="-319.5" font-family="sans" font-size="10.00">samtools_sort</text>
</g>
<!-- 15&#45;&gt;6 -->
<g id="edge17" class="edge">
<title>15&#45;&gt;6</title>
<path fill="none" stroke="grey" stroke-width="2" d="M130.33,-303.7C121.64,-295.14 111.01,-284.66 101.53,-275.3"/>
<polygon fill="grey" stroke="grey" stroke-width="2" points="103.8,-272.63 94.22,-268.1 98.89,-277.62 103.8,-272.63"/>
</g>
<!-- 16 -->
<g id="node17" class="node">
<title>16</title>
<path fill="none" stroke="#56b1d8" stroke-width="2" d="M320.88,-340C320.88,-340 258.88,-340 258.88,-340 252.88,-340 246.88,-334 246.88,-328 246.88,-328 246.88,-316 246.88,-316 246.88,-310 252.88,-304 258.88,-304 258.88,-304 320.88,-304 320.88,-304 326.88,-304 332.88,-310 332.88,-316 332.88,-316 332.88,-328 332.88,-328 332.88,-334 326.88,-340 320.88,-340"/>
<text text-anchor="middle" x="289.88" y="-319.5" font-family="sans" font-size="10.00">samtools_sort</text>
</g>
<!-- 16&#45;&gt;7 -->
<g id="edge19" class="edge">
<title>16&#45;&gt;7</title>
<path fill="none" stroke="grey" stroke-width="2" d="M289.88,-303.7C289.88,-295.98 289.88,-286.71 289.88,-278.11"/>
<polygon fill="grey" stroke="grey" stroke-width="2" points="293.38,-278.1 289.88,-268.1 286.38,-278.1 293.38,-278.1"/>
</g>
<!-- 17&#45;&gt;15 -->
<g id="edge22" class="edge">
<title>17&#45;&gt;15</title>
<path fill="none" stroke="grey" stroke-width="2" d="M150.06,-375.69C149.73,-367.91 149.36,-358.84 149.01,-350.45"/>
<polygon fill="grey" stroke="grey" stroke-width="2" points="152.5,-350.17 148.59,-340.32 145.51,-350.46 152.5,-350.17"/>
</g>
<!-- 18&#45;&gt;16 -->
<g id="edge23" class="edge">
<title>18&#45;&gt;16</title>
<path fill="none" stroke="grey" stroke-width="2" d="M286.97,-375.69C287.4,-367.91 287.9,-358.84 288.36,-350.45"/>
<polygon fill="grey" stroke="grey" stroke-width="2" points="291.86,-350.5 288.92,-340.32 284.87,-350.11 291.86,-350.5"/>
</g>
</g>
</svg>
