<?xml version="1.0" encoding="UTF-8" standalone="no"?>
<!DOCTYPE svg PUBLIC "-//W3C//DTD SVG 1.1//EN"
 "http://www.w3.org/Graphics/SVG/1.1/DTD/svg11.dtd">
<!-- Generated by graphviz version 2.42.3 (20191010.1750)
 -->
<!-- Title: snakemake_dag Pages: 1 -->
<svg width="379pt" height="476pt"
 viewBox="0.00 0.00 378.50 476.00" xmlns="http://www.w3.org/2000/svg" xmlns:xlink="http://www.w3.org/1999/xlink">
<g id="graph0" class="graph" transform="scale(1 1) rotate(0) translate(4 472)">
<title>snakemake_dag</title>
<polygon fill="white" stroke="transparent" points="-4,4 -4,-472 374.5,-472 374.5,4 -4,4"/>
<!-- 0 -->
<g id="node1" class="node">
<title>0</title>
<path fill="none" stroke="#9fd856" stroke-width="2" d="M182,-36C182,-36 152,-36 152,-36 146,-36 140,-30 140,-24 140,-24 140,-12 140,-12 140,-6 146,0 152,0 152,0 182,0 182,0 188,0 194,-6 194,-12 194,-12 194,-24 194,-24 194,-30 188,-36 182,-36"/>
<text text-anchor="middle" x="167" y="-15.5" font-family="sans" font-size="10.00">all</text>
</g>
<!-- 1 -->
<g id="node2" class="node">
<title>1</title>
<path fill="none" stroke="#d85656" stroke-width="2" d="M82,-108C82,-108 12,-108 12,-108 6,-108 0,-102 0,-96 0,-96 0,-84 0,-84 0,-78 6,-72 12,-72 12,-72 82,-72 82,-72 88,-72 94,-78 94,-84 94,-84 94,-96 94,-96 94,-102 88,-108 82,-108"/>
<text text-anchor="middle" x="47" y="-87.5" font-family="sans" font-size="10.00">samtools_index</text>
</g>
<!-- 1&#45;&gt;0 -->
<g id="edge3" class="edge">
<title>1&#45;&gt;0</title>
<path fill="none" stroke="grey" stroke-width="2" d="M76.36,-71.88C92.9,-62.23 113.69,-50.1 131.19,-39.89"/>
<polygon fill="grey" stroke="grey" stroke-width="2" points="133.13,-42.81 140,-34.75 129.6,-36.77 133.13,-42.81"/>
</g>
<!-- 2 -->
<g id="node3" class="node">
<title>2</title>
<path fill="none" stroke="#5682d8" stroke-width="2" d="M358.5,-108C358.5,-108 287.5,-108 287.5,-108 281.5,-108 275.5,-102 275.5,-96 275.5,-96 275.5,-84 275.5,-84 275.5,-78 281.5,-72 287.5,-72 287.5,-72 358.5,-72 358.5,-72 364.5,-72 370.5,-78 370.5,-84 370.5,-84 370.5,-96 370.5,-96 370.5,-102 364.5,-108 358.5,-108"/>
<text text-anchor="middle" x="323" y="-87.5" font-family="sans" font-size="10.00">multiQC_fastQC</text>
</g>
<!-- 2&#45;&gt;0 -->
<g id="edge1" class="edge">
<title>2&#45;&gt;0</title>
<path fill="none" stroke="grey" stroke-width="2" d="M284.84,-71.88C259.99,-60.73 227.78,-46.27 203.31,-35.29"/>
<polygon fill="grey" stroke="grey" stroke-width="2" points="204.57,-32.02 194.01,-31.12 201.7,-38.41 204.57,-32.02"/>
</g>
<!-- 3 -->
<g id="node4" class="node">
<title>3</title>
<path fill="none" stroke="#56b1d8" stroke-width="2" d="M146,-180C146,-180 78,-180 78,-180 72,-180 66,-174 66,-168 66,-168 66,-156 66,-156 66,-150 72,-144 78,-144 78,-144 146,-144 146,-144 152,-144 158,-150 158,-156 158,-156 158,-168 158,-168 158,-174 152,-180 146,-180"/>
<text text-anchor="middle" x="112" y="-159.5" font-family="sans" font-size="10.00">multiQC_picard</text>
</g>
<!-- 3&#45;&gt;0 -->
<g id="edge2" class="edge">
<title>3&#45;&gt;0</title>
<path fill="none" stroke="grey" stroke-width="2" d="M118.63,-143.87C128.09,-119.46 145.53,-74.43 156.68,-45.64"/>
<polygon fill="grey" stroke="grey" stroke-width="2" points="159.99,-46.78 160.34,-36.19 153.47,-44.25 159.99,-46.78"/>
</g>
<!-- 4 -->
<g id="node5" class="node">
<title>4</title>
<path fill="none" stroke="#70d856" stroke-width="2" d="M244.5,-108C244.5,-108 169.5,-108 169.5,-108 163.5,-108 157.5,-102 157.5,-96 157.5,-96 157.5,-84 157.5,-84 157.5,-78 163.5,-72 169.5,-72 169.5,-72 244.5,-72 244.5,-72 250.5,-72 256.5,-78 256.5,-84 256.5,-84 256.5,-96 256.5,-96 256.5,-102 250.5,-108 244.5,-108"/>
<text text-anchor="middle" x="207" y="-87.5" font-family="sans" font-size="10.00">multiQC_flagstat</text>
</g>
<!-- 4&#45;&gt;0 -->
<g id="edge4" class="edge">
<title>4&#45;&gt;0</title>
<path fill="none" stroke="grey" stroke-width="2" d="M197.11,-71.7C192.51,-63.64 186.94,-53.89 181.85,-44.98"/>
<polygon fill="grey" stroke="grey" stroke-width="2" points="184.77,-43.05 176.77,-36.1 178.7,-46.52 184.77,-43.05"/>
</g>
<!-- 5 -->
<g id="node6" class="node">
<title>5</title>
<path fill="none" stroke="#56d8c9" stroke-width="2" d="M155,-252C155,-252 69,-252 69,-252 63,-252 57,-246 57,-240 57,-240 57,-228 57,-228 57,-222 63,-216 69,-216 69,-216 155,-216 155,-216 161,-216 167,-222 167,-228 167,-228 167,-240 167,-240 167,-246 161,-252 155,-252"/>
<text text-anchor="middle" x="112" y="-231.5" font-family="sans" font-size="10.00">remove_duplicates</text>
</g>
<!-- 5&#45;&gt;1 -->
<g id="edge5" class="edge">
<title>5&#45;&gt;1</title>
<path fill="none" stroke="grey" stroke-width="2" d="M87.6,-215.87C76.35,-206.6 63.98,-194.15 57,-180 47.52,-160.76 45.35,-136.42 45.37,-118.06"/>
<polygon fill="grey" stroke="grey" stroke-width="2" points="48.87,-118.09 45.59,-108.02 41.87,-117.94 48.87,-118.09"/>
</g>
<!-- 5&#45;&gt;3 -->
<g id="edge7" class="edge">
<title>5&#45;&gt;3</title>
<path fill="none" stroke="grey" stroke-width="2" d="M112,-215.7C112,-207.98 112,-198.71 112,-190.11"/>
<polygon fill="grey" stroke="grey" stroke-width="2" points="115.5,-190.1 112,-180.1 108.5,-190.1 115.5,-190.1"/>
</g>
<!-- 7 -->
<g id="node8" class="node">
<title>7</title>
<path fill="none" stroke="#56d89a" stroke-width="2" d="M268,-180C268,-180 188,-180 188,-180 182,-180 176,-174 176,-168 176,-168 176,-156 176,-156 176,-150 182,-144 188,-144 188,-144 268,-144 268,-144 274,-144 280,-150 280,-156 280,-156 280,-168 280,-168 280,-174 274,-180 268,-180"/>
<text text-anchor="middle" x="228" y="-159.5" font-family="sans" font-size="10.00">samtools_flagstat</text>
</g>
<!-- 5&#45;&gt;7 -->
<g id="edge11" class="edge">
<title>5&#45;&gt;7</title>
<path fill="none" stroke="grey" stroke-width="2" d="M140.38,-215.88C155.54,-206.72 174.41,-195.34 190.74,-185.48"/>
<polygon fill="grey" stroke="grey" stroke-width="2" points="192.76,-188.35 199.51,-180.19 189.14,-182.36 192.76,-188.35"/>
</g>
<!-- 6 -->
<g id="node7" class="node">
<title>6</title>
<path fill="none" stroke="#d88556" stroke-width="2" d="M340,-180C340,-180 310,-180 310,-180 304,-180 298,-174 298,-168 298,-168 298,-156 298,-156 298,-150 304,-144 310,-144 310,-144 340,-144 340,-144 346,-144 352,-150 352,-156 352,-156 352,-168 352,-168 352,-174 346,-180 340,-180"/>
<text text-anchor="middle" x="325" y="-159.5" font-family="sans" font-size="10.00">fastQC</text>
</g>
<!-- 6&#45;&gt;2 -->
<g id="edge6" class="edge">
<title>6&#45;&gt;2</title>
<path fill="none" stroke="grey" stroke-width="2" d="M324.51,-143.7C324.29,-135.98 324.02,-126.71 323.77,-118.11"/>
<polygon fill="grey" stroke="grey" stroke-width="2" points="327.27,-118 323.49,-108.1 320.28,-118.2 327.27,-118"/>
</g>
<!-- 7&#45;&gt;4 -->
<g id="edge8" class="edge">
<title>7&#45;&gt;4</title>
<path fill="none" stroke="grey" stroke-width="2" d="M222.81,-143.7C220.47,-135.9 217.65,-126.51 215.05,-117.83"/>
<polygon fill="grey" stroke="grey" stroke-width="2" points="218.36,-116.68 212.13,-108.1 211.65,-118.69 218.36,-116.68"/>
</g>
<!-- 8 -->
<g id="node9" class="node">
<title>8</title>
<path fill="none" stroke="#56d86b" stroke-width="2" d="M126,-468C126,-468 88,-468 88,-468 82,-468 76,-462 76,-456 76,-456 76,-444 76,-444 76,-438 82,-432 88,-432 88,-432 126,-432 126,-432 132,-432 138,-438 138,-444 138,-444 138,-456 138,-456 138,-462 132,-468 126,-468"/>
<text text-anchor="middle" x="107" y="-447.5" font-family="sans" font-size="10.00">index_ref</text>
</g>
<!-- 8&#45;&gt;5 -->
<g id="edge10" class="edge">
<title>8&#45;&gt;5</title>
<path fill="none" stroke="grey" stroke-width="2" d="M103.46,-431.99C97.85,-402.51 88.31,-340.11 96,-288 97.28,-279.35 99.67,-270.15 102.22,-261.89"/>
<polygon fill="grey" stroke="grey" stroke-width="2" points="105.55,-262.96 105.35,-252.37 98.9,-260.78 105.55,-262.96"/>
</g>
<!-- 10 -->
<g id="node11" class="node">
<title>10</title>
<path fill="none" stroke="#ced856" stroke-width="2" d="M162,-396C162,-396 122,-396 122,-396 116,-396 110,-390 110,-384 110,-384 110,-372 110,-372 110,-366 116,-360 122,-360 122,-360 162,-360 162,-360 168,-360 174,-366 174,-372 174,-372 174,-384 174,-384 174,-390 168,-396 162,-396"/>
<text text-anchor="middle" x="142" y="-375.5" font-family="sans" font-size="10.00">bwa_map</text>
</g>
<!-- 8&#45;&gt;10 -->
<g id="edge13" class="edge">
<title>8&#45;&gt;10</title>
<path fill="none" stroke="grey" stroke-width="2" d="M115.65,-431.7C119.64,-423.73 124.45,-414.1 128.87,-405.26"/>
<polygon fill="grey" stroke="grey" stroke-width="2" points="132.11,-406.61 133.45,-396.1 125.85,-403.48 132.11,-406.61"/>
</g>
<!-- 9 -->
<g id="node10" class="node">
<title>9</title>
<path fill="none" stroke="#d8b456" stroke-width="2" d="M179,-324C179,-324 117,-324 117,-324 111,-324 105,-318 105,-312 105,-312 105,-300 105,-300 105,-294 111,-288 117,-288 117,-288 179,-288 179,-288 185,-288 191,-294 191,-300 191,-300 191,-312 191,-312 191,-318 185,-324 179,-324"/>
<text text-anchor="middle" x="148" y="-303.5" font-family="sans" font-size="10.00">samtools_sort</text>
</g>
<!-- 9&#45;&gt;5 -->
<g id="edge9" class="edge">
<title>9&#45;&gt;5</title>
<path fill="none" stroke="grey" stroke-width="2" d="M139.1,-287.7C135,-279.73 130.05,-270.1 125.51,-261.26"/>
<polygon fill="grey" stroke="grey" stroke-width="2" points="128.48,-259.4 120.8,-252.1 122.26,-262.6 128.48,-259.4"/>
</g>
<!-- 10&#45;&gt;9 -->
<g id="edge12" class="edge">
<title>10&#45;&gt;9</title>
<path fill="none" stroke="grey" stroke-width="2" d="M143.48,-359.7C144.14,-351.98 144.94,-342.71 145.68,-334.11"/>
<polygon fill="grey" stroke="grey" stroke-width="2" points="149.17,-334.37 146.53,-324.1 142.19,-333.77 149.17,-334.37"/>
</g>
</g>
</svg>
